<svg width="181" height="36" xmlns="http://www.w3.org/2000/svg" xmlns:xlink="http://www.w3.org/1999/xlink"><defs><path id="a" d="M0 .008h14.265V33.64H0z"/><path id="c" d="M.086.008h14.265V33.64H.086z"/><path id="e" d="M.087.008h21.398V33.64H.087z"/></defs><g fill="none" fill-rule="evenodd"><path d="M77.142 22.796V9.478h2.074v16.315h-2.54l-.023-.033-9.265-13.285v13.318h-2.073V9.478h2.54l.023.033 9.264 13.285Zm53.554 2.997V9.478h2.074v16.315h-2.074Zm47.48-8.157c0-.906-.154-1.775-.457-2.585a6.55 6.55 0 0 0-1.297-2.11 6 6 0 0 0-1.995-1.417 6.225 6.225 0 0 0-2.56-.523c-.929 0-1.79.176-2.558.523-.78.342-1.45.82-1.995 1.417a6.33 6.33 0 0 0-1.297 2.11 7.184 7.184 0 0 0-.465 2.585c0 .918.157 1.787.464 2.583.3.8.736 1.51 1.297 2.11a5.915 5.915 0 0 0 1.995 1.425c.774.343 1.635.517 2.56.517a6.33 6.33 0 0 0 2.56-.517 6.129 6.129 0 0 0 1.994-1.424 6.57 6.57 0 0 0 1.297-2.11 7.288 7.288 0 0 0 .457-2.584Zm1.578-3.416c.42 1.033.632 2.182.632 3.416 0 1.23-.213 2.383-.632 3.423a8.1 8.1 0 0 1-1.771 2.719 8.391 8.391 0 0 1-2.698 1.785c-1.043.428-2.192.646-3.418.646-1.228 0-2.38-.218-3.423-.646a8.39 8.39 0 0 1-2.698-1.785 8.21 8.21 0 0 1-1.772-2.72c-.42-1.04-.631-2.191-.631-3.422 0-1.234.212-2.383.63-3.416a8.081 8.081 0 0 1 1.773-2.72 8.319 8.319 0 0 1 2.698-1.792c1.032-.424 2.184-.639 3.423-.639 1.236 0 2.386.215 3.418.64a8.313 8.313 0 0 1 2.698 1.79 7.97 7.97 0 0 1 1.771 2.721Zm-70.768-4.742h12.759v1.937h-5.346v14.378h-2.074V12.457l1.04-1.04-6.379-.002V9.478Zm-11.882 0 .02.047 6.923 16.268h-2.408l-.02-.048-5.522-13.581-5.747 13.63h-2.34l.048-.11L95.2 9.478h1.904Zm51.973 13.63 5.746-13.63h2.34l-.048.11-7.141 16.205h-1.904l-.02-.047-6.923-16.268h2.408l.02.049 5.522 13.58Z" fill="#FFF"/><g transform="translate(.387 .103)"><mask id="b" fill="#fff"><use xlink:href="#a"/></mask><path fill="#FFF" mask="url(#b)" d="M14.265.008H7.128L0 16.824 7.128 33.64h7.137L7.137 16.824z"/></g><g transform="translate(35.964 .103)"><mask id="d" fill="#fff"><use xlink:href="#c"/></mask><path fill="#FFF" mask="url(#d)" d="M.086.008h7.136l7.129 16.816L7.222 33.64H.086l7.128-16.816z"/></g><g transform="translate(14.565 .103)"><mask id="f" fill="#fff"><use xlink:href="#e"/></mask><path fill="#FFF" mask="url(#f)" d="M7.224.008H.087l7.131 16.816h3.99l-2.802 2.802 5.942 14.014h7.137z"/></g></g></svg>